# xmcd
#
# Track frame offsets:
#	150
#	15373
#	30145
#	44544
#	59409
#	74836
#	90499
#	105522
#	119552
#	135938
#	149884
#	166213
#	182272
#	196065
#
# Disc length: 2793 seconds
#
# Revision: 0
# Processed by: cddbd v1.5.1PL2 Copyright (c) Steve Scherf et al.
# Submitted via: dBpowerAMP V4.0
#
DISCID=b80ae70e
DTITLE=Sabor de Mulher - Deliciosamente Forro
DYEAR=2006
DGENRE=Forro
TTITLE0=Vivendo na solidao
TTITLE1=Amor passageiro
TTITLE2=Juras de amor
TTITLE3=Nao me deixe
TTITLE4=Estrela do ceu
TTITLE5=Magica do amor
TTITLE6=Arrebenta coraçao
TTITLE7=Eu sei
TTITLE8=Preciso de voce
TTITLE9=Te desejo
TTITLE10=Traz de volta
TTITLE11=Anjo azul
TTITLE12=Voce vive em mim
TTITLE13=Meu lamento
EXTD=
EXTT0=
EXTT1=
EXTT2=
EXTT3=
EXTT4=
EXTT5=
EXTT6=
EXTT7=
EXTT8=
EXTT9=
EXTT10=
EXTT11=
EXTT12=
EXTT13=
PLAYORDER=
